#!OML:ASF F:\VICON\USERDATA\INSTALL\rory3\rory3.ASF
:FULLY-SPECIFIED
:DEGREES
2177
root -0.42136 17.3096 -1.3117 25.48 -4.43604 4.71951
lowerback 12.3658 -1.7205 4.78595
upperback -2.55464 -1.55072 -0.165924
thorax -9.866 -1.02923 -2.56022
lowerneck -22.6739 1.30405 -11.5609
upperneck 3.7609 6.30582 -13.4141
head 4.94514 1.85207 -1.82719
rclavicle -1.59028e-015 7.15625e-015
rhumerus 29.9501 -34.8142 -128.737
rradius 12.8399
rwrist 130.31
rhand -52.0389 47.5327
rfingers 7.12502
rthumb -24.5448 19.0859
lclavicle -1.59028e-015 7.15625e-015
lhumerus 130.61 53.1679 233.654
lradius 16.252
lwrist -165.189
lhand -52.7271 39.0086
lfingers 7.12502
lthumb -25.2043 67.3642
rfemur -42.3702 12.9226 7.37408
rtibia 29.8318
rfoot -12.2497 -12.6052
rtoes -25.8292
lfemur -36.1183 -10.553 -15.4439
ltibia 20.7397
lfoot -9.89478 10.409
ltoes -24.2007
2178
root -0.420371 17.3106 -1.31102 25.4914 -4.41923 4.61173
lowerback 12.3568 -1.70274 4.93358
upperback -2.56126 -1.50544 -0.184207
thorax -9.86998 -1.01702 -2.67301
lowerneck -22.4393 1.27329 -11.511
upperneck 3.59695 6.17529 -13.336
head 4.8506 1.82114 -1.82356
rclavicle -2.18663e-014 -2.38542e-014
rhumerus 30.0019 -35.0205 -128.862
rradius 12.8999
rwrist 130.513
rhand -52.1221 47.5711
rfingers 7.12502
rthumb -24.6245 19.1352
lclavicle -2.18663e-014 -2.38542e-014
lhumerus 130.535 53.2891 233.552
lradius 16.2557
lwrist -165.143
lhand -52.8636 38.8753
lfingers 7.12502
lthumb -25.3351 67.2125
rfemur -42.3484 13.0271 7.45182
rtibia 29.7708
rfoot -12.1738 -12.6465
rtoes -25.7959
lfemur -36.082 -10.5227 -15.331
ltibia 20.6562
lfoot -9.8047 10.4267
ltoes -24.3239
2179
root -0.418804 17.3118 -1.31163 25.4829 -4.48334 4.63898
lowerback 12.4138 -1.68247 4.8999
upperback -2.56778 -1.48462 -0.228947
thorax -9.90887 -1.00756 -2.70571
lowerneck -22.3049 1.25002 -11.4743
upperneck 3.44293 6.07818 -13.2619
head 4.77521 1.80037 -1.81575
rclavicle -1.47101e-014 -2.46493e-014
rhumerus 30.029 -35.2085 -128.923
rradius 12.8546
rwrist 130.534
rhand -52.3436 49.0712
rfingers 7.12502
rthumb -24.8369 20.6644
lclavicle -1.47101e-014 -2.46493e-014
lhumerus 130.6 53.2549 233.598
lradius 16.2122
lwrist -165.263
lhand -53.0061 39.0854
lfingers 7.12502
lthumb -25.4716 67.4032
rfemur -42.3526 13.1716 7.3292
rtibia 29.7269
rfoot -12.1612 -12.7367
rtoes -25.6866
lfemur -36.0178 -10.5004 -15.3831
ltibia 20.5536
lfoot -9.76609 10.5198
ltoes -24.6752
2180
root -0.415885 17.3124 -1.31209 25.4824 -4.55865 4.77923
lowerback 12.4378 -1.69282 4.7562
upperback -2.57269 -1.52378 -0.266533
thorax -9.92783 -1.01971 -2.65637
lowerneck -22.188 1.2369 -11.5119
upperneck 3.23012 6.00502 -13.16
head 4.68039 1.79633 -1.78589
rclavicle -2.54444e-014 3.97569e-015
rhumerus 30.0468 -35.273 -128.977
rradius 12.7846
rwrist 130.622
rhand -52.4411 50.5563
rfingers 7.12502
rthumb -24.9302 22.1623
lclavicle -2.54444e-014 3.97569e-015
lhumerus 130.791 53.1288 233.767
lradius 16.1843
lwrist -165.414
lhand -53.0267 39.1233
lfingers 7.12502
lthumb -25.4914 67.4382
rfemur -42.362 13.1545 7.14652
rtibia 29.7083
rfoot -12.1088 -12.7316
rtoes -25.9267
lfemur -35.9706 -10.5341 -15.5535
ltibia 20.4536
lfoot -9.71765 10.5891
ltoes -25.2493
2181
root -0.412882 17.3151 -1.3105 25.4995 -4.53611 4.79762
lowerback 12.3827 -1.7175 4.78442
upperback -2.55973 -1.55601 -0.271373
thorax -9.88529 -1.03594 -2.67183
lowerneck -22.0798 1.20537 -11.5446
upperneck 3.04276 5.91277 -13.0637
head 4.59565 1.77972 -1.7605
rclavicle 8.34896e-015 2.38542e-015
rhumerus 30.1186 -35.2995 -129.136
rradius 12.9073
rwrist 131.009
rhand -52.3476 49.5423
rfingers 7.12502
rthumb -24.8407 21.136
lclavicle 8.34896e-015 2.38542e-015
lhumerus 130.72 53.2286 233.636
lradius 16.1708
lwrist -165.237
lhand -53.0736 38.8086
lfingers 7.12502
lthumb -25.5363 67.1172
rfemur -42.3509 13.1673 7.10122
rtibia 29.6935
rfoot -12.1297 -12.7759
rtoes -25.9981
lfemur -35.9375 -10.5926 -15.5593
ltibia 20.3517
lfoot -9.64599 10.6519
ltoes -25.5492
2182
root -0.409869 17.3194 -1.30867 25.4938 -4.52339 4.74613
lowerback 12.3484 -1.73653 4.84606
upperback -2.5304 -1.57055 -0.234466
thorax -9.83514 -1.04363 -2.66468
lowerneck -22.0386 1.1644 -11.6477
upperneck 2.95587 5.85061 -12.9287
head 4.55066 1.76706 -1.70954
rclavicle 1.11319e-014 -2.38542e-015
rhumerus 30.1909 -35.2868 -129.257
rradius 12.9616
rwrist 131.28
rhand -52.2835 48.2879
rfingers 7.12502
rthumb -24.7792 19.8731
lclavicle 1.11319e-014 -2.38542e-015
lhumerus 130.674 53.2886 233.565
lradius 16.1517
lwrist -165.094
lhand -53.0619 38.6208
lfingers 7.12502
lthumb -25.525 66.9309
rfemur -42.2595 13.2258 7.13323
rtibia 29.661
rfoot -12.4067 -12.7688
rtoes -24.9759
lfemur -35.8851 -10.5944 -15.5104
ltibia 20.29
lfoot -9.73397 10.6063
ltoes -24.5135
2183
root -0.406298 17.3231 -1.30681 25.5427 -4.5226 4.64006
lowerback 12.3301 -1.744 4.96405
upperback -2.52935 -1.5592 -0.19717
thorax -9.82538 -1.0435 -2.69376
lowerneck -22.041 1.12165 -11.7176
upperneck 2.90785 5.79195 -12.7999
head 4.52638 1.75077 -1.66494
rclavicle 1.23246e-014 6.36111e-015
rhumerus 30.2306 -35.3222 -129.347
rradius 12.903
rwrist 131.262
rhand -52.2634 48.0377
rfingers 7.12502
rthumb -24.76 19.6202
lclavicle 1.23246e-014 6.36111e-015
lhumerus 130.7 53.2461 233.607
lradius 16.1647
lwrist -165.049
lhand -53.0127 38.6609
lfingers 7.12502
lthumb -25.4779 66.9777
rfemur -42.2235 13.3251 7.17303
rtibia 29.5764
rfoot -12.5788 -12.7361
rtoes -23.5183
lfemur -35.9064 -10.6093 -15.3768
ltibia 20.2643
lfoot -9.83618 10.6059
ltoes -23.8438
2184
root -0.403587 17.3212 -1.30542 25.5668 -4.54538 4.57501
lowerback 12.3611 -1.76459 4.98292
upperback -2.55114 -1.57771 -0.158064
thorax -9.8687 -1.05337 -2.65733
lowerneck -21.9457 1.10238 -11.7855
upperneck 2.76891 5.72524 -12.5992
head 4.4541 1.74788 -1.59889
rclavicle -1.19271e-014 -1.43125e-014
rhumerus 30.166 -35.3433 -129.41
rradius 12.8885
rwrist 131.266
rhand -52.196 47.8888
rfingers 7.12502
rthumb -24.6953 19.4625
lclavicle -1.19271e-014 -1.43125e-014
lhumerus 130.759 53.2191 233.615
lradius 16.199
lwrist -164.976
lhand -52.9926 38.688
lfingers 7.12502
lthumb -25.4587 67.0077
rfemur -42.2367 13.3922 7.1997
rtibia 29.4969
rfoot -12.4696 -12.8191
rtoes -23.4997
lfemur -35.9047 -10.6137 -15.2995
ltibia 20.2177
lfoot -9.70253 10.6924
ltoes -24.5656
2185
root -0.400396 17.3222 -1.30292 25.5699 -4.57554 4.60525
lowerback 12.3391 -1.77253 4.92415
upperback -2.53117 -1.59843 -0.147531
thorax -9.83304 -1.05841 -2.60908
lowerneck -21.8841 1.01785 -11.9657
upperneck 2.62555 5.59724 -12.2917
head 4.37731 1.71981 -1.48926
rclavicle 3.65764e-014 -1.19271e-014
rhumerus 30.2188 -35.3572 -129.514
rradius 13.0024
rwrist 131.619
rhand -52.3862 48.3211
rfingers 7.12502
rthumb -24.8777 19.9199
lclavicle 3.65764e-014 -1.19271e-014
lhumerus 130.877 52.9902 233.793
lradius 16.2465
lwrist -165.196
lhand -53.0549 38.857
lfingers 7.12502
lthumb -25.5183 67.1681
rfemur -42.2068 13.4358 7.12209
rtibia 29.3976
rfoot -12.385 -12.84
rtoes -24.0306
lfemur -35.8671 -10.643 -15.341
ltibia 20.1567
lfoot -9.64268 10.7154
ltoes -24.6109
2186
root -0.397349 17.3245 -1.30072 25.5842 -4.64276 4.76457
lowerback 12.2504 -1.76755 4.76076
upperback -2.47348 -1.62831 -0.193243
thorax -9.7155 -1.06157 -2.56249
lowerneck -21.9187 0.931082 -12.09
upperneck 2.50898 5.47931 -12.0417
head 4.32873 1.68724 -1.40477
rclavicle 1.03368e-014 -1.90833e-014
rhumerus 30.3998 -35.3715 -129.668
rradius 12.9981
rwrist 131.802
rhand -52.5789 48.168
rfingers 7.12502
rthumb -25.0623 19.7924
lclavicle 1.03368e-014 -1.90833e-014
lhumerus 130.726 52.8952 233.678
lradius 16.2538
lwrist -165.177
lhand -53.0982 38.9966
lfingers 7.12502
lthumb -25.5598 67.3018
rfemur -42.2128 13.4089 6.91729
rtibia 29.3026
rfoot -12.161 -12.849
rtoes -25.1177
lfemur -35.8371 -10.6651 -15.5413
ltibia 20.076
lfoot -9.62037 10.6679
ltoes -24.1648
2187
root -0.391943 17.3279 -1.29847 25.6462 -4.62718 4.79917
lowerback 12.1321 -1.78551 4.79193
upperback -2.44726 -1.65602 -0.20901
thorax -9.6216 -1.07499 -2.59403
lowerneck -21.8754 0.852027 -12.1437
upperneck 2.37334 5.33806 -11.8026
head 4.26487 1.64794 -1.33616
rclavicle 4.37326e-015 0
rhumerus 30.4898 -35.4239 -129.779
rradius 12.969
rwrist 131.785
rhand -52.5679 47.9532
rfingers 7.12502
rthumb -25.0517 19.5761
lclavicle 4.37326e-015 0
lhumerus 130.622 52.8782 233.595
lradius 16.2766
lwrist -165.088
lhand -53.0812 39.0216
lfingers 7.12502
lthumb -25.5435 67.329
rfemur -42.2576 13.3954 6.83557
rtibia 29.2221
rfoot -11.9373 -12.9006
rtoes -25.7538
lfemur -35.8429 -10.6996 -15.5795
ltibia 19.9596
lfoot -9.55141 10.6455
ltoes -24.1974
